{
	"asset":{
		"version":"2.0",
		"generator":"Created using the official Cinema 4D glTF Exporter 1.000x284978"
	},
	"samplers":[{
		"magFilter":9729,
		"minFilter":9729,
		"wrapS":10497,
		"wrapT":10497
	},
	{
		"magFilter":9729,
		"minFilter":9729,
		"wrapS":10497,
		"wrapT":10497
	}],
	"scenes":[{
		"nodes":[0]
	}],
	"nodes":[{
		"name":"Moon",
		"translation":[0.0,
		0.0,
		0.0],
		"rotation":[0.7071067690849304,
		0.0,
		0.0,
		-0.7071067690849304],
		"scale":[100.0,
		100.0,
		100.0],
		"mesh":0
	}],
	"meshes":[{
		"name":"Moon",
		"primitives":[{
			"attributes":{
				"POSITION":1,
				"NORMAL":2,
				"TEXCOORD_0":3
			},
			"indices":0,
			"material":0
		}]
	}],
	"accessors":[{
		"bufferView":0,
		"type":"SCALAR",
		"componentType":5123,
		"byteOffset":0,
		"count":9216,
		"min":[0],
		"max":[1648]
	},
	{
		"bufferView":1,
		"type":"VEC3",
		"componentType":5126,
		"byteOffset":0,
		"count":1649,
		"min":[-1.7299375534057618,
		-1.7310166358947755,
		-1.7303075790405274],
		"max":[1.7299375534057618,
		1.7310163974761963,
		1.7303075790405274]
	},
	{
		"bufferView":1,
		"type":"VEC3",
		"componentType":5126,
		"byteOffset":12,
		"count":1649,
		"min":[-0.9987059235572815,
		-0.9998449087142944,
		-0.9998931884765625],
		"max":[0.9987059831619263,
		0.9998448491096497,
		0.9998932480812073]
	},
	{
		"bufferView":1,
		"type":"VEC2",
		"componentType":5126,
		"byteOffset":24,
		"count":1649,
		"min":[0.006090207491070032,
		0.008087754249572754],
		"max":[0.9939097762107849,
		0.9919122457504273]
	}],
	"images":[{
		"uri":"data:image/jpeg;base64,"
	},
	{
		"uri":"data:image/jpeg;base64,"
	}],
	"bufferViews":[{
		"buffer":0,
		"byteOffset":0,
		"byteLength":18432,
		"target":34963
	},
	{
		"buffer":0,
		"byteOffset":18432,
		"byteLength":52768,
		"target":34962,
		"byteStride":32
	}],
	"textures":[{
		"sampler":0,
		"source":0
	},
	{
		"sampler":1,
		"source":1
	}],
	"buffers":[{
		"uri":"data:application/octet-stream;base64,",
		"byteLength":71200
	}],
	"materials":[{
		"pbrMetallicRoughness":{
			"baseColorTexture":{
				"index":0
			},
			"baseColorFactor":[0.8,
			0.8,
			0.8,
			1.0],
			"metallicFactor":1.0,
			"roughnessFactor":1.0
		},
		"normalTexture":{
			"index":1,
			"scale":0.3
		},
		"emissiveFactor":[0.0,
		0.0,
		0.0],
		"alphaMode":"OPAQUE",
		"doubleSided":false,
		"name":"Moon"
	}]
}